<svg xmlns="http://www.w3.org/2000/svg" xmlns:xlink="http://www.w3.org/1999/xlink" width="50" zoomAndPan="magnify" viewBox="0 0 37.5 37.499999" height="50" preserveAspectRatio="xMidYMid meet" version="1.0"><defs><clipPath id="c976b9101a"><path d="M 0 5.550781 L 37.007812 5.550781 L 37.007812 31.457031 L 0 31.457031 Z M 0 5.550781 " clip-rule="nonzero"/></clipPath></defs><g clip-path="url(#c976b9101a)"><path fill="#737373" d="M 2.023438 5.617188 C 1.777344 5.613281 1.542969 5.65625 1.3125 5.746094 C 1.085938 5.839844 0.882812 5.972656 0.707031 6.144531 C 0.53125 6.320312 0.394531 6.519531 0.300781 6.746094 C 0.207031 6.972656 0.15625 7.210938 0.15625 7.457031 C 0.15625 7.703125 0.207031 7.941406 0.300781 8.167969 C 0.394531 8.394531 0.53125 8.59375 0.707031 8.769531 C 0.882812 8.941406 1.085938 9.074219 1.3125 9.164062 C 1.542969 9.257812 1.777344 9.300781 2.023438 9.296875 L 35.164062 9.296875 C 35.410156 9.300781 35.648438 9.257812 35.878906 9.164062 C 36.105469 9.074219 36.308594 8.941406 36.484375 8.769531 C 36.660156 8.59375 36.796875 8.394531 36.890625 8.167969 C 36.984375 7.941406 37.03125 7.703125 37.03125 7.457031 C 37.03125 7.210938 36.984375 6.972656 36.890625 6.746094 C 36.796875 6.519531 36.660156 6.320312 36.484375 6.144531 C 36.308594 5.972656 36.105469 5.839844 35.878906 5.746094 C 35.648438 5.65625 35.410156 5.613281 35.164062 5.617188 Z M 2.023438 16.664062 C 1.777344 16.660156 1.542969 16.703125 1.3125 16.792969 C 1.085938 16.886719 0.882812 17.019531 0.707031 17.191406 C 0.53125 17.363281 0.394531 17.566406 0.300781 17.792969 C 0.207031 18.019531 0.15625 18.257812 0.15625 18.503906 C 0.15625 18.75 0.207031 18.988281 0.300781 19.214844 C 0.394531 19.441406 0.53125 19.640625 0.707031 19.8125 C 0.882812 19.988281 1.085938 20.121094 1.3125 20.210938 C 1.542969 20.304688 1.777344 20.347656 2.023438 20.34375 L 35.164062 20.34375 C 35.410156 20.347656 35.648438 20.304688 35.878906 20.210938 C 36.105469 20.121094 36.308594 19.988281 36.484375 19.8125 C 36.660156 19.640625 36.796875 19.441406 36.890625 19.214844 C 36.984375 18.988281 37.03125 18.75 37.03125 18.503906 C 37.03125 18.257812 36.984375 18.019531 36.890625 17.792969 C 36.796875 17.566406 36.660156 17.363281 36.484375 17.191406 C 36.308594 17.019531 36.105469 16.886719 35.878906 16.792969 C 35.648438 16.703125 35.410156 16.660156 35.164062 16.664062 Z M 2.023438 27.707031 C 1.777344 27.707031 1.542969 27.75 1.3125 27.839844 C 1.082031 27.933594 0.882812 28.066406 0.707031 28.238281 C 0.53125 28.410156 0.394531 28.613281 0.300781 28.839844 C 0.207031 29.066406 0.15625 29.304688 0.15625 29.550781 C 0.15625 29.796875 0.207031 30.035156 0.300781 30.261719 C 0.394531 30.488281 0.53125 30.6875 0.707031 30.859375 C 0.882812 31.035156 1.082031 31.167969 1.3125 31.257812 C 1.542969 31.351562 1.777344 31.394531 2.023438 31.390625 L 35.164062 31.390625 C 35.410156 31.394531 35.648438 31.351562 35.878906 31.257812 C 36.105469 31.167969 36.308594 31.035156 36.484375 30.859375 C 36.660156 30.6875 36.796875 30.488281 36.890625 30.261719 C 36.984375 30.035156 37.03125 29.796875 37.03125 29.550781 C 37.03125 29.304688 36.984375 29.066406 36.890625 28.839844 C 36.796875 28.613281 36.660156 28.410156 36.484375 28.238281 C 36.308594 28.066406 36.105469 27.933594 35.878906 27.839844 C 35.648438 27.75 35.410156 27.707031 35.164062 27.707031 Z M 2.023438 27.707031 " fill-opacity="1" fill-rule="nonzero"/><path fill="#737373" d="M 2.023438 5.617188 C 1.777344 5.613281 1.542969 5.65625 1.3125 5.746094 C 1.085938 5.839844 0.882812 5.972656 0.707031 6.144531 C 0.53125 6.320312 0.394531 6.519531 0.300781 6.746094 C 0.207031 6.972656 0.15625 7.210938 0.15625 7.457031 C 0.15625 7.703125 0.207031 7.941406 0.300781 8.167969 C 0.394531 8.394531 0.53125 8.59375 0.707031 8.769531 C 0.882812 8.941406 1.085938 9.074219 1.3125 9.164062 C 1.542969 9.257812 1.777344 9.300781 2.023438 9.296875 L 35.164062 9.296875 C 35.410156 9.300781 35.648438 9.257812 35.878906 9.164062 C 36.105469 9.074219 36.308594 8.941406 36.484375 8.769531 C 36.660156 8.59375 36.796875 8.394531 36.890625 8.167969 C 36.984375 7.941406 37.03125 7.703125 37.03125 7.457031 C 37.03125 7.210938 36.984375 6.972656 36.890625 6.746094 C 36.796875 6.519531 36.660156 6.320312 36.484375 6.144531 C 36.308594 5.972656 36.105469 5.839844 35.878906 5.746094 C 35.648438 5.65625 35.410156 5.613281 35.164062 5.617188 Z M 2.023438 16.664062 C 1.777344 16.660156 1.542969 16.703125 1.3125 16.792969 C 1.085938 16.886719 0.882812 17.019531 0.707031 17.191406 C 0.53125 17.363281 0.394531 17.566406 0.300781 17.792969 C 0.207031 18.019531 0.15625 18.257812 0.15625 18.503906 C 0.15625 18.75 0.207031 18.988281 0.300781 19.214844 C 0.394531 19.441406 0.53125 19.640625 0.707031 19.8125 C 0.882812 19.988281 1.085938 20.121094 1.3125 20.210938 C 1.542969 20.304688 1.777344 20.347656 2.023438 20.34375 L 35.164062 20.34375 C 35.410156 20.347656 35.648438 20.304688 35.878906 20.210938 C 36.105469 20.121094 36.308594 19.988281 36.484375 19.8125 C 36.660156 19.640625 36.796875 19.441406 36.890625 19.214844 C 36.984375 18.988281 37.03125 18.75 37.03125 18.503906 C 37.03125 18.257812 36.984375 18.019531 36.890625 17.792969 C 36.796875 17.566406 36.660156 17.363281 36.484375 17.191406 C 36.308594 17.019531 36.105469 16.886719 35.878906 16.792969 C 35.648438 16.703125 35.410156 16.660156 35.164062 16.664062 Z M 2.023438 27.707031 C 1.777344 27.707031 1.542969 27.75 1.3125 27.839844 C 1.082031 27.933594 0.882812 28.066406 0.707031 28.238281 C 0.53125 28.410156 0.394531 28.613281 0.300781 28.839844 C 0.207031 29.066406 0.15625 29.304688 0.15625 29.550781 C 0.15625 29.796875 0.207031 30.035156 0.300781 30.261719 C 0.394531 30.488281 0.53125 30.6875 0.707031 30.859375 C 0.882812 31.035156 1.082031 31.167969 1.3125 31.257812 C 1.542969 31.351562 1.777344 31.394531 2.023438 31.390625 L 35.164062 31.390625 C 35.410156 31.394531 35.648438 31.351562 35.878906 31.257812 C 36.105469 31.167969 36.308594 31.035156 36.484375 30.859375 C 36.660156 30.6875 36.796875 30.488281 36.890625 30.261719 C 36.984375 30.035156 37.03125 29.796875 37.03125 29.550781 C 37.03125 29.304688 36.984375 29.066406 36.890625 28.839844 C 36.796875 28.613281 36.660156 28.410156 36.484375 28.238281 C 36.308594 28.066406 36.105469 27.933594 35.878906 27.839844 C 35.648438 27.75 35.410156 27.707031 35.164062 27.707031 Z M 2.023438 27.707031 " fill-opacity="1" fill-rule="nonzero"/></g></svg>